<svg xmlns="http://www.w3.org/2000/svg" width="26" height="26" viewBox="0 0 26 26">
  <path d="M22.7,25.8H3.5A3.2,3.2,0,0,1,.3,22.6V3.4A3.2,3.2,0,0,1,3.5.2H22.7a3.2,3.2,0,0,1,3.2,3.2V22.6A3.2,3.2,0,0,1,22.7,25.8ZM13.1,8.039a4.957,4.957,0,0,0-4.5,2.88h0c-0.008.018-.014,0.037-0.022,0.055-0.047.1-.089,0.213-0.129,0.321-0.019.052-.04,0.1-0.057,0.156-0.037.111-.066,0.225-0.1,0.34-0.014.054-.03,0.106-0.041,0.16-0.026.121-.044,0.244-0.061,0.368-0.007.05-.017,0.1-0.023,0.15a4.96,4.96,0,1,0,9.861,0c-0.005-.051-0.016-0.1-0.023-0.15-0.017-.124-0.035-0.247-0.061-0.368-0.012-.054-0.028-0.107-0.041-0.16-0.029-.114-0.059-0.228-0.1-0.34-0.017-.053-0.038-0.1-0.057-0.156-0.04-.109-0.081-0.216-0.129-0.321-0.008-.018-0.014-0.037-0.022-0.055h0A4.957,4.957,0,0,0,13.1,8.039Zm9.92-3.68a1.28,1.28,0,0,0-1.28-1.28H19.18a1.28,1.28,0,0,0-1.28,1.28V6.92A1.28,1.28,0,0,0,19.18,8.2h2.56a1.28,1.28,0,0,0,1.28-1.28V4.359Zm0,6.56H20.66a7.84,7.84,0,1,1-15.121,0H3.18v10.72a1.28,1.28,0,0,0,1.28,1.28H21.74a1.28,1.28,0,0,0,1.28-1.28V10.92Z"/>
</svg>
