<svg xmlns="http://www.w3.org/2000/svg" width="21" height="26" viewBox="0 0 21 26">    
  <path d="M9.051,16.854c-0.209.833-.42,1.706-0.638,2.561a19.538,19.538,0,0,1-.718,2.47,12.651,12.651,0,0,1-2.044,3.521c-0.575.667-.452,0.4-0.626,0.365-0.132-.027-0.144-0.157-0.169-0.344a19.284,19.284,0,0,1,.008-3.34,18.046,18.046,0,0,1,.588-3.471c0.485-2.063.946-4.087,1.435-6.164a1.369,1.369,0,0,0,.09-0.445,6.415,6.415,0,0,1-.429-1.7,5.41,5.41,0,0,1,.139-1.943A3.209,3.209,0,0,1,8.582,6.024a2.175,2.175,0,0,1,1.734.132A1.884,1.884,0,0,1,11.184,7.4a4.49,4.49,0,0,1-.08,1.892c-0.267,1.218-.618,2.133-0.937,3.309a3.64,3.64,0,0,0-.189,1.812,2.105,2.105,0,0,0,.847,1.275,2.464,2.464,0,0,0,1.625.455A3.551,3.551,0,0,0,15.1,14.577a9.27,9.27,0,0,0,1.675-4.686,11.516,11.516,0,0,0,.07-2.014A5.479,5.479,0,0,0,15.719,4.76a5.281,5.281,0,0,0-2.512-1.711A8.334,8.334,0,0,0,9.46,2.816,6.636,6.636,0,0,0,4.545,6.349a7.079,7.079,0,0,0-.837,3.41,4.426,4.426,0,0,0,.678,2.5c0.133,0.2.328,0.367,0.458,0.6a1.729,1.729,0,0,1-.12,1.164c-0.11.425-.121,1.012-0.618,1.022A1.506,1.506,0,0,1,3.469,14.8a5.117,5.117,0,0,1-2.422-3.734,8.934,8.934,0,0,1,0-3.238,9.214,9.214,0,0,1,4.4-6.143A10.451,10.451,0,0,1,9.35.337c0.508-.075,1.034-0.1,1.605-0.132a9.638,9.638,0,0,1,4.326.809,8.85,8.85,0,0,1,2.98,2.146A8.122,8.122,0,0,1,20.1,6.47a7.977,7.977,0,0,1,.4,2.287,13.725,13.725,0,0,1-.308,2.368,9.329,9.329,0,0,1-3.838,6.458,6.635,6.635,0,0,1-1.754.809,6.408,6.408,0,0,1-2.243.283,4.6,4.6,0,0,1-1.983-.577A3.287,3.287,0,0,1,9.051,16.854Z"/>
</svg>
