<svg xmlns="http://www.w3.org/2000/svg" width="26" height="22" viewBox="0 0 26 22">
  <path d="M17.513,0.6a5.4,5.4,0,0,1,4.151,1.647,8.5,8.5,0,0,0,2.691-.907l0.653-.357A5.253,5.253,0,0,1,23.3,3.45a2.522,2.522,0,0,1-.577.409V3.871a9.837,9.837,0,0,0,2.973-.8V3.079a8.5,8.5,0,0,1-1.781,2.044l-0.82.651a15.043,15.043,0,0,1-.244,3.373c-1.312,5.895-4.787,9.9-10.289,11.612a15.727,15.727,0,0,1-7.431.306,19.191,19.191,0,0,1-3.088-1.009A12.31,12.31,0,0,1,.561,19.29L0.1,19.009a8.557,8.557,0,0,0,1.679.064c0.516-.083,1.023-0.061,1.5-0.166A10.762,10.762,0,0,0,6.429,17.77a5.869,5.869,0,0,0,1.422-.932,4.475,4.475,0,0,1-1.563-.281A5.275,5.275,0,0,1,2.957,13.2a5.209,5.209,0,0,0,2.345-.1,3.846,3.846,0,0,1-1.717-.69,5.053,5.053,0,0,1-2.473-4.5L1.65,8.163a5.766,5.766,0,0,0,1.1.307,1.572,1.572,0,0,0,.718.063H3.444C3.18,8.226,2.749,8.021,2.483,7.69A5.366,5.366,0,0,1,1.3,2.926a6.1,6.1,0,0,1,.564-1.367L1.894,1.571a3.2,3.2,0,0,0,.474.55A9.61,9.61,0,0,0,3.931,3.615a15.462,15.462,0,0,0,6.419,3.1,10.019,10.019,0,0,0,2.358.307,4.881,4.881,0,0,1,.026-2.466,5.178,5.178,0,0,1,2.973-3.525A6.31,6.31,0,0,1,16.872.677Z"/>
</svg>
