<svg xmlns="http://www.w3.org/2000/svg" width="16" height="16" viewBox="0 0 16 16">
  <defs>
    <style>
      .cls-1 {
        fill: #95e1d3;
        fill-rule: evenodd;
      }
    </style>
  </defs>
  <g id="Монтажная_область_1" data-name="Монтажная область 1">
    <path id="twitter" class="cls-1" d="M255.883,17.516a3.375,3.375,0,0,1,2.594,1.03,5.318,5.318,0,0,0,1.682-.567l0.409-.224A3.283,3.283,0,0,1,259.5,19.3a1.532,1.532,0,0,1-.36.256v0.008a6.162,6.162,0,0,0,1.858-.5v0.008a5.3,5.3,0,0,1-1.113,1.277l-0.513.407a9.358,9.358,0,0,1-.152,2.108,9.176,9.176,0,0,1-6.43,7.258,9.824,9.824,0,0,1-4.645.192,12.016,12.016,0,0,1-1.93-.631,7.742,7.742,0,0,1-.929-0.479L245,29.02a5.349,5.349,0,0,0,1.049.04c0.323-.052.639-0.038,0.937-0.1a6.714,6.714,0,0,0,1.97-.71,3.67,3.67,0,0,0,.889-0.582,2.8,2.8,0,0,1-.977-0.176,3.3,3.3,0,0,1-2.082-2.1,3.255,3.255,0,0,0,1.465-.064,2.4,2.4,0,0,1-1.073-.431,3.156,3.156,0,0,1-1.545-2.81l0.336,0.16a3.6,3.6,0,0,0,.689.192,0.98,0.98,0,0,0,.448.039H247.09c-0.165-.192-0.435-0.32-0.6-0.526a3.355,3.355,0,0,1-.736-2.978,3.8,3.8,0,0,1,.352-0.854l0.016,0.008a2.033,2.033,0,0,0,.3.343,6.033,6.033,0,0,0,.977.934,9.675,9.675,0,0,0,4.012,1.941,6.327,6.327,0,0,0,1.474.191,3.046,3.046,0,0,1,.016-1.541,3.236,3.236,0,0,1,1.858-2.2,3.952,3.952,0,0,1,.728-0.223Z" transform="translate(-245 -16)"/>
  </g>
</svg>
