<svg xmlns="http://www.w3.org/2000/svg" width="16" height="16" viewBox="0 0 16 16">
  <defs>
    <style>
      .cls-1 {
        fill: #95e1d3;
        fill-rule: evenodd;
      }
    </style>
  </defs>
  <g id="Монтажная_область_1" data-name="Монтажная область 1">
    <path id="instagram" class="cls-1" d="M289,32.015H277a2,2,0,0,1-2-2v-12a2,2,0,0,1,2-2h12a2,2,0,0,1,2,2v12A2,2,0,0,1,289,32.015Zm-6-11.1a3.1,3.1,0,0,0-2.811,1.8h0c0,0.011-.009.023-0.014,0.035-0.029.065-.055,0.133-0.08,0.2-0.012.032-.025,0.064-0.036,0.1-0.023.07-.042,0.141-0.059,0.212-0.009.033-.019,0.066-0.026,0.1-0.017.076-.028,0.153-0.038,0.23,0,0.031-.011.062-0.015,0.094a3.3,3.3,0,0,0-.018.331,3.1,3.1,0,1,0,6.2,0,3.3,3.3,0,0,0-.018-0.331c0-.032-0.01-0.063-0.015-0.094-0.01-.077-0.022-0.154-0.038-0.23-0.007-.034-0.017-0.067-0.026-0.1-0.018-.072-0.036-0.142-0.059-0.212-0.011-.033-0.024-0.065-0.036-0.1-0.025-.068-0.051-0.136-0.08-0.2,0-.011-0.009-0.023-0.014-0.035h0A3.1,3.1,0,0,0,283,20.915Zm6.2-2.3a0.8,0.8,0,0,0-.8-0.8h-1.6a0.8,0.8,0,0,0-.8.8v1.6a0.8,0.8,0,0,0,.8.8h1.6a0.8,0.8,0,0,0,.8-0.8v-1.6Zm0,4.1h-1.475a4.9,4.9,0,1,1-9.45,0H276.8v6.7a0.8,0.8,0,0,0,.8.8h10.8a0.8,0.8,0,0,0,.8-0.8v-6.7Z" transform="translate(-275 -16)"/>
  </g>
</svg>
