<svg xmlns="http://www.w3.org/2000/svg" width="12" height="16" viewBox="0 0 12 16">
  <defs>
    <style>
      .cls-1 {
        fill: #95e1d3;
        fill-rule: evenodd;
      }
    </style>
  </defs>
  <g id="Монтажная_область_1" data-name="Монтажная область 1">
    <path id="pinterest" class="cls-1" d="M311.844,26.424c-0.131.521-.262,1.066-0.4,1.6A12.206,12.206,0,0,1,311,29.567a7.907,7.907,0,0,1-1.277,2.2c-0.359.417-.283,0.25-0.391,0.228-0.083-.017-0.09-0.1-0.106-0.215a12.034,12.034,0,0,1,0-2.087,11.278,11.278,0,0,1,.367-2.17c0.3-1.29.592-2.554,0.9-3.852a0.874,0.874,0,0,0,.057-0.278,3.975,3.975,0,0,1-.268-1.063,3.365,3.365,0,0,1,.087-1.215,2,2,0,0,1,1.184-1.461,1.355,1.355,0,0,1,1.083.082,1.173,1.173,0,0,1,.542.778,2.8,2.8,0,0,1-.049,1.183c-0.167.761-.387,1.333-0.586,2.068a2.265,2.265,0,0,0-.118,1.133,1.319,1.319,0,0,0,.529.8,1.547,1.547,0,0,0,1.016.285A2.221,2.221,0,0,0,315.626,25a5.8,5.8,0,0,0,1.047-2.929,7.178,7.178,0,0,0,.043-1.259,3.425,3.425,0,0,0-.7-1.948,3.294,3.294,0,0,0-1.57-1.069,5.2,5.2,0,0,0-2.342-.145,4.15,4.15,0,0,0-3.072,2.207,4.428,4.428,0,0,0-.523,2.131,2.762,2.762,0,0,0,.424,1.562c0.083,0.126.205,0.229,0.286,0.374a1.076,1.076,0,0,1-.075.727c-0.068.266-.076,0.633-0.386,0.639a0.936,0.936,0,0,1-.4-0.152,3.2,3.2,0,0,1-1.514-2.334,5.578,5.578,0,0,1,0-2.025,5.753,5.753,0,0,1,2.747-3.839,6.535,6.535,0,0,1,2.442-.841c0.318-.046.647-0.066,1-0.083a6.025,6.025,0,0,1,2.7.507,5.544,5.544,0,0,1,1.863,1.341,5.085,5.085,0,0,1,1.146,2.069A4.972,4.972,0,0,1,319,21.364a8.586,8.586,0,0,1-.193,1.48,5.831,5.831,0,0,1-2.4,4.036,4.152,4.152,0,0,1-1.1.506,4.007,4.007,0,0,1-1.4.176,2.878,2.878,0,0,1-1.239-.36A2.053,2.053,0,0,1,311.844,26.424Z" transform="translate(-307 -16)"/>
  </g>
</svg>
