<svg xmlns="http://www.w3.org/2000/svg" width="16" height="16" viewBox="0 0 16 16">
  <defs>
    <style>
      .cls-1 {
        fill: #95e1d3;
        fill-rule: evenodd;
      }
    </style>
  </defs>
  <g id="Монтажная_область_1" data-name="Монтажная область 1">
    <path id="google_plus" data-name="google plus" class="cls-1" d="M348.5,20.717v2.44h-1v-2.44H345v-1h2.5V17.28h1v2.44H351v1h-2.5Zm-6.915-2.471a2.56,2.56,0,0,1,1.408,2.33,2.708,2.708,0,0,1-1.239,2.1,1.361,1.361,0,0,0-.81,1.186,2.713,2.713,0,0,0,1.111,1.289,2.85,2.85,0,0,1,1.444,2.693c0,1.5-1.444,3.169-4.116,3.169C337.039,31.016,335,29.9,335,28.4c0-1.52,1.866-2.987,4.209-2.987,0.256,0,.49-0.011.732-0.011a1.609,1.609,0,0,1-.574-1.151,1.721,1.721,0,0,1,.213-0.785c-0.127.009-.257-0.012-0.391-0.012a3.061,3.061,0,0,1-3.214-3.057c0-1.631,1.781-3.132,3.673-3.132h4.22l-0.945.983h-1.338ZM339.656,25.8c-1.62-.017-3.071.97-3.071,2.156,0,1.209,1.17,2.094,2.789,2.094,2.277,0,3.071-.823,3.071-2.032a1.8,1.8,0,0,0-.052-0.428c-0.178-.684-0.808-1.023-1.688-1.624A3.593,3.593,0,0,0,339.656,25.8Zm1.82-5.2a2.821,2.821,0,0,0-2.356-2.559c-1.087-.032-1.816,1.041-1.628,2.443a2.822,2.822,0,0,0,2.308,2.6C340.887,23.109,341.663,22,341.476,20.6Z" transform="translate(-335 -16)"/>
  </g>
</svg>
