<svg xmlns="http://www.w3.org/2000/svg" width="16" height="16" viewBox="0 0 16 16">
  <defs>
    <style>
      .cls-1 {
        fill: #95e1d3;
        fill-rule: evenodd;
      }
    </style>
  </defs>
  <g id="Монтажная_область_1" data-name="Монтажная область 1">
    <path id="dribbble" class="cls-1" d="M410.837,22.4a7.993,7.993,0,0,0-2.18-4.046,8,8,0,0,0-12.29,1.183,7.959,7.959,0,0,0-1.205,2.863,8.089,8.089,0,0,0,0,3.222,7.969,7.969,0,0,0,1.205,2.863,7.979,7.979,0,0,0,5.022,3.363,8,8,0,0,0,7.268-2.18,8.05,8.05,0,0,0,.976-1.184A8.013,8.013,0,0,0,410.837,22.4Zm-1.007,1.543a15.816,15.816,0,0,0-4.759-.224c-0.048-.117-0.1-0.234-0.147-0.353-0.142-.334-0.295-0.665-0.454-0.991a8.794,8.794,0,0,0,3.807-2.7A6.8,6.8,0,0,1,409.83,23.947Zm-2.317-5.059a7.441,7.441,0,0,1-3.569,2.474,34.6,34.6,0,0,0-2.554-3.986A6.82,6.82,0,0,1,407.513,18.888Zm-6.149-1.507h0l-0.02,0Zm-1.279.455a41.141,41.141,0,0,1,2.537,3.937,25.256,25.256,0,0,1-6.308.834A6.841,6.841,0,0,1,400.085,17.836Zm-3.917,6.179c0-.073,0-0.144,0-0.216a25.06,25.06,0,0,0,7.015-.973c0.2,0.383.383,0.772,0.554,1.16-0.09.026-.18,0.053-0.269,0.082a10.807,10.807,0,0,0-5.557,4.509,0.006,0.006,0,0,1,0,0A6.81,6.81,0,0,1,396.168,24.014ZM403,30.847a6.8,6.8,0,0,1-4.352-1.566c0.09,0.073.153,0.12,0.153,0.12a9.256,9.256,0,0,1,5.362-4.268l0.045-.014a28.412,28.412,0,0,1,1.459,5.188A6.8,6.8,0,0,1,403,30.847Zm3.818-1.165a29.622,29.622,0,0,0-1.33-4.88,9.9,9.9,0,0,1,4.258.3A6.836,6.836,0,0,1,406.818,29.682Z" transform="translate(-395 -16)"/>
  </g>
</svg>
