<svg xmlns="http://www.w3.org/2000/svg" width="10" height="16" viewBox="0 0 10 16">
  <defs>
    <style>
      .cls-1 {
        fill: #95e1d3;
        fill-rule: evenodd;
      }
    </style>
  </defs>
  <g id="Монтажная_область_1" data-name="Монтажная область 1">
    <path id="tumblr" class="cls-1" d="M438.009,31.145a9.546,9.546,0,0,1-1.849.678,7.792,7.792,0,0,1-1.789.195,4.875,4.875,0,0,1-1.718-.276,4.18,4.18,0,0,1-1.431-.79,2.889,2.889,0,0,1-.823-1.092,4.773,4.773,0,0,1-.228-1.677V22.569h-2.164V20.3a5.613,5.613,0,0,0,1.8-.878,4.37,4.37,0,0,0,1.075-1.376,6.2,6.2,0,0,0,.558-2.04H433.7v3.7h3.682v2.857H433.7v4.105a7.005,7.005,0,0,0,.086,1.727,1.473,1.473,0,0,0,.607.691,2.3,2.3,0,0,0,1.209.319,4.34,4.34,0,0,0,2.406-.79v2.525Z" transform="translate(-428 -16)"/>
  </g>
</svg>
